<svg xmlns="http://www.w3.org/2000/svg" width="4018.6" height="874" viewBox="0 0 4018.6 874"><rect width="100%" height="100%" fill="#FFFFFF"/><defs><marker id="arrow-0" viewBox="0 0 10 10" refX="5" refY="5" markerUnits="userSpaceOnUse" markerWidth="8" markerHeight="8" orient="auto"><path d="M 0 0 L 10 5 L 0 10 z" fill="#333333"/></marker><marker id="arrow-start-0" viewBox="0 0 10 10" refX="4.5" refY="5" markerUnits="userSpaceOnUse" markerWidth="8" markerHeight="8" orient="auto"><path d="M 0 5 L 10 10 L 10 0 z" fill="#333333"/></marker></defs><rect x="24.00" y="324.00" width="3934.60" height="490.00" rx="10" ry="10" fill="#FFFFDE" stroke="#AAAA33" stroke-width="1" /><text x="1991.30" y="352.00" text-anchor="middle" font-family="'trebuchet ms', verdana, arial, sans-serif" font-size="16" fill="#333333"><tspan x="1991.30" dy="0.00">IndexTTS Worker</tspan></text><rect x="3251.60" y="419.00" width="695.00" height="269.00" rx="10" ry="10" fill="#FFFFDE" stroke="#AAAA33" stroke-width="1" /><text x="3599.10" y="447.00" text-anchor="middle" font-family="'trebuchet ms', verdana, arial, sans-serif" font-size="16" fill="#333333"><tspan x="3599.10" dy="0.00">Inference Engine</tspan></text><rect x="36.00" y="336.00" width="484.20" height="238.00" rx="10" ry="10" fill="#FFFFDE" stroke="#AAAA33" stroke-width="1" /><text x="278.10" y="364.00" text-anchor="middle" font-family="'trebuchet ms', verdana, arial, sans-serif" font-size="16" fill="#333333"><tspan x="278.10" dy="0.00">Input Processing</tspan></text><rect x="3252.30" y="24.00" width="237.60" height="342.00" rx="10" ry="10" fill="#FFFFDE" stroke="#AAAA33" stroke-width="1" /><text x="3371.10" y="52.00" text-anchor="middle" font-family="'trebuchet ms', verdana, arial, sans-serif" font-size="16" fill="#333333"><tspan x="3371.10" dy="0.00">External Systems</tspan></text><rect x="1666.30" y="440.00" width="223.20" height="342.00" rx="10" ry="10" fill="#FFFFDE" stroke="#AAAA33" stroke-width="1" /><text x="1777.90" y="468.00" text-anchor="middle" font-family="'trebuchet ms', verdana, arial, sans-serif" font-size="16" fill="#333333"><tspan x="1777.90" dy="0.00">Local Storage</tspan></text><rect x="783.60" y="440.00" width="433.50" height="134.00" rx="10" ry="10" fill="#FFFFDE" stroke="#AAAA33" stroke-width="1" /><text x="1000.35" y="468.00" text-anchor="middle" font-family="'trebuchet ms', verdana, arial, sans-serif" font-size="16" fill="#333333"><tspan x="1000.35" dy="0.00">Configuration Layer</tspan></text><rect x="2360.30" y="128.00" width="383.30" height="134.00" rx="10" ry="10" fill="#FFFFDE" stroke="#AAAA33" stroke-width="1" /><text x="2551.95" y="156.00" text-anchor="middle" font-family="'trebuchet ms', verdana, arial, sans-serif" font-size="16" fill="#333333"><tspan x="2551.95" dy="0.00">RunPod Serverless</tspan></text><rect x="2163.00" y="668.00" width="368.60" height="134.00" rx="10" ry="10" fill="#FFFFDE" stroke="#AAAA33" stroke-width="1" /><text x="2347.30" y="696.00" text-anchor="middle" font-family="'trebuchet ms', verdana, arial, sans-serif" font-size="16" fill="#333333"><tspan x="2347.30" dy="0.00">Output Layer</tspan></text><rect x="1505.70" y="564.00" width="361.50" height="134.00" rx="10" ry="10" fill="#FFFFDE" stroke="#AAAA33" stroke-width="1" /><text x="1686.45" y="592.00" text-anchor="middle" font-family="'trebuchet ms', verdana, arial, sans-serif" font-size="16" fill="#333333"><tspan x="1686.45" dy="0.00">Audio Processing</tspan></text><path d="M 3321.420,134.000C3321.420,133.583,3469.607,132.958,3321.420,132.750C3173.233,132.542,2580.487,124.208,2432.300,132.750C2284.113,141.292,2432.300,166.917,2432.300,184.000" fill="none" stroke="#333333" stroke-width="2" marker-end="url(#arrow-0)"   stroke-linecap="round" stroke-linejoin="round" /><rect x="2840.46" y="86.75" width="72.80" height="28.00" rx="0" ry="0" fill="#E8E8E8" fill-opacity="0.5" stroke="none"/><text x="2876.86" y="104.75" text-anchor="middle" font-family="'trebuchet ms', verdana, arial, sans-serif" font-size="16" fill="#333333"><tspan x="2876.86" dy="0.00">HTTP POST</tspan></text><path d="M 2477.300,238.000C2477.300,226.083,2449.717,208.208,2477.300,202.250C2504.883,196.292,2615.217,205.292,2642.800,202.250C2670.383,199.208,2642.800,190.083,2642.800,184.000" fill="none" stroke="#333333" stroke-width="2" marker-end="url(#arrow-0)"   stroke-linecap="round" stroke-linejoin="round" /><rect x="2523.65" y="252.25" width="72.80" height="28.00" rx="0" ry="0" fill="#E8E8E8" fill-opacity="0.5" stroke="none"/><text x="2560.05" y="270.25" text-anchor="middle" font-family="'trebuchet ms', verdana, arial, sans-serif" font-size="16" fill="#333333"><tspan x="2560.05" dy="0.00">Queue Job</tspan></text><path d="M 2610.400,238.000C2610.400,269.417,3019.967,316.542,2610.400,332.250C2200.833,347.958,562.567,313.625,153.000,332.250C-256.567,350.875,153.000,406.750,153.000,444.000" fill="none" stroke="#333333" stroke-width="2" marker-end="url(#arrow-0)"   stroke-linecap="round" stroke-linejoin="round" /><rect x="1338.10" y="286.25" width="87.20" height="28.00" rx="0" ry="0" fill="#E8E8E8" fill-opacity="0.5" stroke="none"/><text x="1381.70" y="304.25" text-anchor="middle" font-family="'trebuchet ms', verdana, arial, sans-serif" font-size="16" fill="#333333"><tspan x="1381.70" dy="0.00">Process Job</tspan></text><path d="M 913.200,550.000C913.200,541.000,874.150,527.500,913.200,523.000C952.250,518.500,1108.450,527.500,1147.500,523.000C1186.550,518.500,1147.500,505.000,1147.500,496.000" fill="none" stroke="#333333" stroke-width="2" marker-end="url(#arrow-0)"   stroke-linecap="round" stroke-linejoin="round" /><rect x="979.55" y="413.00" width="101.60" height="28.00" rx="0" ry="0" fill="#E8E8E8" fill-opacity="0.5" stroke="none"/><text x="1030.35" y="431.00" text-anchor="middle" font-family="'trebuchet ms', verdana, arial, sans-serif" font-size="16" fill="#333333"><tspan x="1030.35" dy="0.00">Load Settings</tspan></text><path d="M 1105.500,550.000C1105.500,522.333,1271.000,480.833,1105.500,467.000C940.000,453.167,278.000,470.833,112.500,467.000C-53.000,463.167,112.500,451.667,112.500,444.000" fill="none" stroke="#333333" stroke-width="2" marker-end="url(#arrow-0)"   stroke-linecap="round" stroke-linejoin="round" /><rect x="554.60" y="421.00" width="108.80" height="28.00" rx="0" ry="0" fill="#E8E8E8" fill-opacity="0.5" stroke="none"/><text x="609.00" y="439.00" text-anchor="middle" font-family="'trebuchet ms', verdana, arial, sans-serif" font-size="16" fill="#333333"><tspan x="609.00" dy="0.00">Provide Config</tspan></text><path d="M 1155.900,550.000C1155.900,502.667,782.617,431.667,1155.900,408.000C1529.183,384.333,3022.317,391.667,3395.600,408.000C3768.884,424.333,3395.600,473.333,3395.600,506.000" fill="none" stroke="#333333" stroke-width="2" marker-end="url(#arrow-0)"   stroke-linecap="round" stroke-linejoin="round" /><rect x="2224.95" y="394.00" width="101.60" height="28.00" rx="0" ry="0" fill="#E8E8E8" fill-opacity="0.5" stroke="none"/><text x="2275.75" y="412.00" text-anchor="middle" font-family="'trebuchet ms', verdana, arial, sans-serif" font-size="16" fill="#333333"><tspan x="2275.75" dy="0.00">Provide Paths</tspan></text><path d="M 3354.540,134.000C3354.540,139.417,3505.247,147.542,3354.540,150.250C3203.833,152.958,2601.007,144.625,2450.300,150.250C2299.593,155.875,2450.300,172.750,2450.300,184.000" fill="none" stroke="#333333" stroke-width="2" marker-end="url(#arrow-0)"  stroke-dasharray="2" stroke-linecap="round" stroke-linejoin="round" /><rect x="2855.22" y="168.25" width="94.40" height="28.00" rx="0" ry="0" fill="#E8E8E8" fill-opacity="0.5" stroke="none"/><text x="2902.42" y="186.25" text-anchor="middle" font-family="'trebuchet ms', verdana, arial, sans-serif" font-size="16" fill="#333333"><tspan x="2902.42" dy="0.00">Health Check</tspan></text><path d="M 2423.300,238.000C2423.300,269.417,2806.183,316.542,2423.300,332.250C2040.417,347.958,508.883,313.625,126.000,332.250C-256.883,350.875,126.000,406.750,126.000,444.000" fill="none" stroke="#333333" stroke-width="2" marker-end="url(#arrow-0)"  stroke-dasharray="2" stroke-linecap="round" stroke-linejoin="round" /><rect x="1227.45" y="286.25" width="94.40" height="28.00" rx="0" ry="0" fill="#E8E8E8" fill-opacity="0.5" stroke="none"/><text x="1274.65" y="304.25" text-anchor="middle" font-family="'trebuchet ms', verdana, arial, sans-serif" font-size="16" fill="#333333"><tspan x="1274.65" dy="0.00">Health Check</tspan></text><path d="M 82.800,498.000C82.800,477.417,35.100,446.542,82.800,436.250C130.500,425.958,321.300,443.625,369.000,436.250C416.700,428.875,369.000,406.750,369.000,392.000" fill="none" stroke="#333333" stroke-width="2" marker-end="url(#arrow-0)"  stroke-dasharray="2" stroke-linecap="round" stroke-linejoin="round" /><rect x="178.70" y="422.25" width="94.40" height="28.00" rx="0" ry="0" fill="#E8E8E8" fill-opacity="0.5" stroke="none"/><text x="225.90" y="440.25" text-anchor="middle" font-family="'trebuchet ms', verdana, arial, sans-serif" font-size="16" fill="#333333"><tspan x="225.90" dy="0.00">Check Status</tspan></text><path d="M 369.000,446.000C369.000,448.583,416.250,452.458,369.000,453.750C321.750,455.042,132.750,455.375,85.500,453.750C38.250,452.125,85.500,447.250,85.500,444.000" fill="none" stroke="#333333" stroke-width="2" marker-end="url(#arrow-0)"  stroke-dasharray="2" stroke-linecap="round" stroke-linejoin="round" /><rect x="201.65" y="439.75" width="51.20" height="28.00" rx="0" ry="0" fill="#E8E8E8" fill-opacity="0.5" stroke="none"/><text x="227.25" y="457.75" text-anchor="middle" font-family="'trebuchet ms', verdana, arial, sans-serif" font-size="16" fill="#333333"><tspan x="227.25" dy="0.00">Status</tspan></text><path d="M 139.500,444.000C172.933,444.000,223.083,478.333,239.800,444.000C256.517,409.667,-128.617,272.333,239.800,238.000C608.217,203.667,1713.467,238.000,2450.300,238.000" fill="none" stroke="#333333" stroke-width="2" marker-end="url(#arrow-0)"  stroke-dasharray="2" stroke-linecap="round" stroke-linejoin="round" /><rect x="181.80" y="327.00" width="116.00" height="28.00" rx="0" ry="0" fill="#E8E8E8" fill-opacity="0.5" stroke="none"/><text x="239.80" y="345.00" text-anchor="middle" font-family="'trebuchet ms', verdana, arial, sans-serif" font-size="16" fill="#333333"><tspan x="239.80" dy="0.00">Health Response</tspan></text><path d="M 2468.300,184.000C2482.200,184.000,2503.050,192.333,2510.000,184.000C2516.950,175.667,2363.723,142.333,2510.000,134.000C2656.277,125.667,3095.107,134.000,3387.660,134.000" fill="none" stroke="#333333" stroke-width="2" marker-end="url(#arrow-0)"  stroke-dasharray="2" stroke-linecap="round" stroke-linejoin="round" /><rect x="2452.00" y="145.00" width="116.00" height="28.00" rx="0" ry="0" fill="#E8E8E8" fill-opacity="0.5" stroke="none"/><text x="2510.00" y="163.00" text-anchor="middle" font-family="'trebuchet ms', verdana, arial, sans-serif" font-size="16" fill="#333333"><tspan x="2510.00" dy="0.00">Health Response</tspan></text><path d="M 93.600,498.000C93.600,494.750,54.100,489.875,93.600,488.250C133.100,486.625,291.100,486.958,330.600,488.250C370.100,489.542,330.600,493.417,330.600,496.000" fill="none" stroke="#333333" stroke-width="2" marker-end="url(#arrow-0)"   stroke-linecap="round" stroke-linejoin="round" /><rect x="157.70" y="474.25" width="108.80" height="28.00" rx="0" ry="0" fill="#E8E8E8" fill-opacity="0.5" stroke="none"/><text x="212.10" y="492.25" text-anchor="middle" font-family="'trebuchet ms', verdana, arial, sans-serif" font-size="16" fill="#333333"><tspan x="212.10" dy="0.00">Extract Params</tspan></text><path d="M 407.400,550.000C407.400,528.083,289.650,495.208,407.400,484.250C525.150,473.292,996.150,482.292,1113.900,484.250C1231.650,486.208,1113.900,492.083,1113.900,496.000" fill="none" stroke="#333333" stroke-width="2" marker-end="url(#arrow-0)"   stroke-linecap="round" stroke-linejoin="round" /><rect x="727.85" y="406.25" width="65.60" height="28.00" rx="0" ry="0" fill="#E8E8E8" fill-opacity="0.5" stroke="none"/><text x="760.65" y="424.25" text-anchor="middle" font-family="'trebuchet ms', verdana, arial, sans-serif" font-size="16" fill="#333333"><tspan x="760.65" dy="0.00">Validate</tspan></text><path d="M 1130.700,550.000C1130.700,553.917,1251.250,559.792,1130.700,561.750C1010.150,563.708,527.950,572.708,407.400,561.750C286.850,550.792,407.400,517.917,407.400,496.000" fill="none" stroke="#333333" stroke-width="2" marker-end="url(#arrow-0)"   stroke-linecap="round" stroke-linejoin="round" /><rect x="711.05" y="547.75" width="116.00" height="28.00" rx="0" ry="0" fill="#E8E8E8" fill-opacity="0.5" stroke="none"/><text x="769.05" y="565.75" text-anchor="middle" font-family="'trebuchet ms', verdana, arial, sans-serif" font-size="16" fill="#333333"><tspan x="769.05" dy="0.00">Return Settings</tspan></text><path d="M 330.600,550.000C330.600,535.250,369.200,513.125,330.600,505.750C292.000,498.375,137.600,516.042,99.000,505.750C60.400,495.458,99.000,464.583,99.000,444.000" fill="none" stroke="#333333" stroke-width="2" marker-end="url(#arrow-0)"   stroke-linecap="round" stroke-linejoin="round" /><rect x="153.20" y="491.75" width="123.20" height="28.00" rx="0" ry="0" fill="#E8E8E8" fill-opacity="0.5" stroke="none"/><text x="214.80" y="509.75" text-anchor="middle" font-family="'trebuchet ms', verdana, arial, sans-serif" font-size="16" fill="#333333"><tspan x="214.80" dy="0.00">Validated Params</tspan></text><path d="M 3407.600,560.000C3407.600,530.000,3341.767,485.000,3407.600,470.000C3473.433,455.000,3736.767,469.167,3802.600,470.000C3868.433,470.833,3802.600,473.333,3802.600,475.000" fill="none" stroke="#333333" stroke-width="2" marker-end="url(#arrow-0)"   stroke-linecap="round" stroke-linejoin="round" /><rect x="3557.90" y="424.00" width="94.40" height="28.00" rx="0" ry="0" fill="#E8E8E8" fill-opacity="0.5" stroke="none"/><text x="3605.10" y="442.00" text-anchor="middle" font-family="'trebuchet ms', verdana, arial, sans-serif" font-size="16" fill="#333333"><tspan x="3605.10" dy="0.00">Check Loaded</tspan></text><path d="M 3371.100,342.000C3371.100,402.333,3640.634,492.833,3371.100,523.000C3101.567,553.167,2023.433,492.833,1753.900,523.000C1484.367,553.167,1753.900,643.667,1753.900,704.000" fill="none" stroke="#333333" stroke-width="2" marker-end="url(#arrow-0)"   stroke-linecap="round" stroke-linejoin="round" /><rect x="2508.10" y="541.00" width="108.80" height="28.00" rx="0" ry="0" fill="#E8E8E8" fill-opacity="0.5" stroke="none"/><text x="2562.50" y="559.00" text-anchor="middle" font-family="'trebuchet ms', verdana, arial, sans-serif" font-size="16" fill="#333333"><tspan x="2562.50" dy="0.00">Download Model</tspan></text><path d="M 1801.900,704.000C1801.900,674.833,1466.450,631.083,1801.900,616.500C2137.350,601.917,3479.150,631.083,3814.600,616.500C4150.050,601.917,3814.600,558.167,3814.600,529.000" fill="none" stroke="#333333" stroke-width="2" marker-end="url(#arrow-0)"   stroke-linecap="round" stroke-linejoin="round" /><rect x="2761.05" y="602.50" width="94.40" height="28.00" rx="0" ry="0" fill="#E8E8E8" fill-opacity="0.5" stroke="none"/><text x="2808.25" y="620.50" text-anchor="middle" font-family="'trebuchet ms', verdana, arial, sans-serif" font-size="16" fill="#333333"><tspan x="2808.25" dy="0.00">Load Weights</tspan></text><path d="M 158.400,498.000C158.400,456.417,-369.133,394.042,158.400,373.250C685.933,352.458,2796.067,351.125,3323.600,373.250C3851.134,395.375,3323.600,461.750,3323.600,506.000" fill="none" stroke="#333333" stroke-width="2" marker-end="url(#arrow-0)"   stroke-linecap="round" stroke-linejoin="round" /><rect x="1672.20" y="359.25" width="137.60" height="28.00" rx="0" ry="0" fill="#E8E8E8" fill-opacity="0.5" stroke="none"/><text x="1741.00" y="377.25" text-anchor="middle" font-family="'trebuchet ms', verdana, arial, sans-serif" font-size="16" fill="#333333"><tspan x="1741.00" dy="0.00">Request Generation</tspan></text><path d="M 3437.600,560.000C3437.600,535.833,3370.767,499.583,3437.600,487.500C3504.433,475.417,3771.767,489.583,3838.600,487.500C3905.433,485.417,3838.600,479.167,3838.600,475.000" fill="none" stroke="#333333" stroke-width="2" marker-end="url(#arrow-0)"   stroke-linecap="round" stroke-linejoin="round" /><rect x="3598.10" y="377.50" width="80.00" height="28.00" rx="0" ry="0" fill="#E8E8E8" fill-opacity="0.5" stroke="none"/><text x="3638.10" y="395.50" text-anchor="middle" font-family="'trebuchet ms', verdana, arial, sans-serif" font-size="16" fill="#333333"><tspan x="3638.10" dy="0.00">Load Model</tspan></text><path d="M 3317.600,560.000C3317.600,549.333,3574.217,533.333,3317.600,528.000C3060.983,522.667,2034.517,533.333,1777.900,528.000C1521.283,522.667,1777.900,506.667,1777.900,496.000" fill="none" stroke="#333333" stroke-width="2" marker-end="url(#arrow-0)"   stroke-linecap="round" stroke-linejoin="round" /><rect x="2496.95" y="578.00" width="101.60" height="28.00" rx="0" ry="0" fill="#E8E8E8" fill-opacity="0.5" stroke="none"/><text x="2547.75" y="596.00" text-anchor="middle" font-family="'trebuchet ms', verdana, arial, sans-serif" font-size="16" fill="#333333"><tspan x="2547.75" dy="0.00">Resolve Voice</tspan></text><path d="M 3347.600,560.000C3347.600,551.000,3302.683,537.500,3347.600,533.000C3392.517,528.500,3572.183,537.500,3617.100,533.000C3662.017,528.500,3617.100,515.000,3617.100,506.000" fill="none" stroke="#333333" stroke-width="2" marker-end="url(#arrow-0)"   stroke-linecap="round" stroke-linejoin="round" /><rect x="3445.95" y="423.00" width="72.80" height="28.00" rx="0" ry="0" fill="#E8E8E8" fill-opacity="0.5" stroke="none"/><text x="3482.35" y="441.00" text-anchor="middle" font-family="'trebuchet ms', verdana, arial, sans-serif" font-size="16" fill="#333333"><tspan x="3482.35" dy="0.00">Long Text</tspan></text><path d="M 3617.100,560.000C3617.100,545.833,3574.183,524.583,3617.100,517.500C3660.017,510.417,3831.683,524.583,3874.600,517.500C3917.517,510.417,3874.600,489.167,3874.600,475.000" fill="none" stroke="#333333" stroke-width="2" marker-end="url(#arrow-0)"   stroke-linecap="round" stroke-linejoin="round" /><rect x="3691.45" y="407.50" width="108.80" height="28.00" rx="0" ry="0" fill="#E8E8E8" fill-opacity="0.5" stroke="none"/><text x="3745.85" y="425.50" text-anchor="middle" font-family="'trebuchet ms', verdana, arial, sans-serif" font-size="16" fill="#333333"><tspan x="3745.85" dy="0.00">Process Chunks</tspan></text><path d="M 3862.600,529.000C3862.600,551.000,3934.433,584.000,3862.600,595.000C3790.767,606.000,3503.433,609.833,3431.600,595.000C3359.767,580.167,3431.600,535.667,3431.600,506.000" fill="none" stroke="#333333" stroke-width="2" marker-end="url(#arrow-0)"   stroke-linecap="round" stroke-linejoin="round" /><rect x="3610.70" y="581.00" width="72.80" height="28.00" rx="0" ry="0" fill="#E8E8E8" fill-opacity="0.5" stroke="none"/><text x="3647.10" y="599.00" text-anchor="middle" font-family="'trebuchet ms', verdana, arial, sans-serif" font-size="16" fill="#333333"><tspan x="3647.10" dy="0.00">Raw Audio</tspan></text><path d="M 3377.600,560.000C3377.600,568.333,3337.683,580.833,3377.600,585.000C3417.517,589.167,3577.183,580.833,3617.100,585.000C3657.017,589.167,3617.100,601.667,3617.100,610.000" fill="none" stroke="#333333" stroke-width="2" marker-end="url(#arrow-0)"   stroke-linecap="round" stroke-linejoin="round" /><rect x="3439.35" y="571.00" width="116.00" height="28.00" rx="0" ry="0" fill="#E8E8E8" fill-opacity="0.5" stroke="none"/><text x="3497.35" y="589.00" text-anchor="middle" font-family="'trebuchet ms', verdana, arial, sans-serif" font-size="16" fill="#333333"><tspan x="3497.35" dy="0.00">Multiple Chunks</tspan></text><path d="M 3359.600,506.000C3359.600,504.667,3891.333,502.667,3359.600,502.000C2827.867,501.333,700.933,502.667,169.200,502.000C-362.533,501.333,169.200,499.333,169.200,498.000" fill="none" stroke="#333333" stroke-width="2" marker-end="url(#arrow-0)"   stroke-linecap="round" stroke-linejoin="round" /><rect x="1717.20" y="488.00" width="94.40" height="28.00" rx="0" ry="0" fill="#E8E8E8" fill-opacity="0.5" stroke="none"/><text x="1764.40" y="506.00" text-anchor="middle" font-family="'trebuchet ms', verdana, arial, sans-serif" font-size="16" fill="#333333"><tspan x="1764.40" dy="0.00">Audio Tensor</tspan></text><path d="M 104.400,498.000C104.400,525.417,-140.850,566.542,104.400,580.250C349.650,593.958,1330.650,573.625,1575.900,580.250C1821.150,586.875,1575.900,606.750,1575.900,620.000" fill="none" stroke="#333333" stroke-width="2" marker-end="url(#arrow-0)"   stroke-linecap="round" stroke-linejoin="round" /><rect x="792.95" y="630.25" width="94.40" height="28.00" rx="0" ry="0" fill="#E8E8E8" fill-opacity="0.5" stroke="none"/><text x="840.15" y="648.25" text-anchor="middle" font-family="'trebuchet ms', verdana, arial, sans-serif" font-size="16" fill="#333333"><tspan x="840.15" dy="0.00">Encode Audio</tspan></text><path d="M 1610.100,674.000C1610.100,665.000,1579.850,651.500,1610.100,647.000C1640.350,642.500,1761.350,651.500,1791.600,647.000C1821.850,642.500,1791.600,629.000,1791.600,620.000" fill="none" stroke="#333333" stroke-width="2" marker-end="url(#arrow-0)"   stroke-linecap="round" stroke-linejoin="round" /><rect x="1664.45" y="633.00" width="72.80" height="28.00" rx="0" ry="0" fill="#E8E8E8" fill-opacity="0.5" stroke="none"/><text x="1700.85" y="651.00" text-anchor="middle" font-family="'trebuchet ms', verdana, arial, sans-serif" font-size="16" fill="#333333"><tspan x="1700.85" dy="0.00">WAV Input</tspan></text><path d="M 1791.600,674.000C1791.600,665.000,1816.150,651.500,1791.600,647.000C1767.050,642.500,1668.850,651.500,1644.300,647.000C1619.750,642.500,1644.300,629.000,1644.300,620.000" fill="none" stroke="#333333" stroke-width="2" marker-end="url(#arrow-0)"   stroke-linecap="round" stroke-linejoin="round" /><rect x="1685.15" y="633.00" width="65.60" height="28.00" rx="0" ry="0" fill="#E8E8E8" fill-opacity="0.5" stroke="none"/><text x="1717.95" y="651.00" text-anchor="middle" font-family="'trebuchet ms', verdana, arial, sans-serif" font-size="16" fill="#333333"><tspan x="1717.95" dy="0.00">OGG Opus</tspan></text><path d="M 1610.100,620.000C1135.333,620.000,423.183,640.333,185.800,620.000C-51.583,599.667,197.567,518.333,185.800,498.000C174.033,477.667,138.733,498.000,115.200,498.000" fill="none" stroke="#333333" stroke-width="2" marker-end="url(#arrow-0)"   stroke-linecap="round" stroke-linejoin="round" /><rect x="-12.60" y="545.00" width="87.20" height="28.00" rx="0" ry="0" fill="#E8E8E8" fill-opacity="0.5" stroke="none"/><text x="31.00" y="563.00" text-anchor="middle" font-family="'trebuchet ms', verdana, arial, sans-serif" font-size="16" fill="#333333"><tspan x="31.00" dy="0.00">Audio Bytes</tspan></text><path d="M 136.800,498.000C136.800,535.667,-210.980,592.167,136.800,611.000C484.580,629.833,1875.700,592.167,2223.480,611.000C2571.260,629.833,2223.480,686.333,2223.480,724.000" fill="none" stroke="#333333" stroke-width="2" marker-end="url(#arrow-0)"   stroke-linecap="round" stroke-linejoin="round" /><rect x="1154.54" y="629.00" width="51.20" height="28.00" rx="0" ry="0" fill="#E8E8E8" fill-opacity="0.5" stroke="none"/><text x="1180.14" y="647.00" text-anchor="middle" font-family="'trebuchet ms', verdana, arial, sans-serif" font-size="16" fill="#333333"><tspan x="1180.14" dy="0.00">Upload</tspan></text><path d="M 2260.200,778.000C2260.200,769.000,2232.167,755.500,2260.200,751.000C2288.233,746.500,2400.367,755.500,2428.400,751.000C2456.433,746.500,2428.400,733.000,2428.400,724.000" fill="none" stroke="#333333" stroke-width="2" marker-end="url(#arrow-0)"   stroke-linecap="round" stroke-linejoin="round" /><rect x="2304.30" y="801.00" width="80.00" height="28.00" rx="0" ry="0" fill="#E8E8E8" fill-opacity="0.5" stroke="none"/><text x="2344.30" y="819.00" text-anchor="middle" font-family="'trebuchet ms', verdana, arial, sans-serif" font-size="16" fill="#333333"><tspan x="2344.30" dy="0.00">Get Client</tspan></text><path d="M 2462.000,724.000C2975.533,724.000,3745.833,805.000,4002.600,724.000C4259.367,643.000,4103.350,319.000,4002.600,238.000C3901.850,157.000,3599.600,238.000,3398.100,238.000" fill="none" stroke="#333333" stroke-width="2" marker-end="url(#arrow-0)"   stroke-linecap="round" stroke-linejoin="round" /><rect x="3973.40" y="467.00" width="58.40" height="28.00" rx="0" ry="0" fill="#E8E8E8" fill-opacity="0.5" stroke="none"/><text x="4002.60" y="485.00" text-anchor="middle" font-family="'trebuchet ms', verdana, arial, sans-serif" font-size="16" fill="#333333"><tspan x="4002.60" dy="0.00">Connect</tspan></text><path d="M 2272.440,724.000C2272.440,643.000,2093.830,521.500,2272.440,481.000C2451.050,440.500,3165.490,521.500,3344.100,481.000C3522.710,440.500,3344.100,319.000,3344.100,238.000" fill="none" stroke="#333333" stroke-width="2" marker-end="url(#arrow-0)"   stroke-linecap="round" stroke-linejoin="round" /><rect x="2761.07" y="435.00" width="94.40" height="28.00" rx="0" ry="0" fill="#E8E8E8" fill-opacity="0.5" stroke="none"/><text x="2808.27" y="453.00" text-anchor="middle" font-family="'trebuchet ms', verdana, arial, sans-serif" font-size="16" fill="#333333"><tspan x="2808.27" dy="0.00">Upload Bytes</tspan></text><path d="M 3371.100,238.000C3371.100,319.000,3550.130,440.500,3371.100,481.000C3192.070,521.500,2475.950,440.500,2296.920,481.000C2117.890,521.500,2296.920,643.000,2296.920,724.000" fill="none" stroke="#333333" stroke-width="2" marker-end="url(#arrow-0)"   stroke-linecap="round" stroke-linejoin="round" /><rect x="2783.21" y="467.00" width="101.60" height="28.00" rx="0" ry="0" fill="#E8E8E8" fill-opacity="0.5" stroke="none"/><text x="2834.01" y="485.00" text-anchor="middle" font-family="'trebuchet ms', verdana, arial, sans-serif" font-size="16" fill="#333333"><tspan x="2834.01" dy="0.00">Presigned URL</tspan></text><path d="M 2247.960,724.000C2247.960,686.333,2598.020,629.833,2247.960,611.000C1897.900,592.167,497.660,629.833,147.600,611.000C-202.460,592.167,147.600,535.667,147.600,498.000" fill="none" stroke="#333333" stroke-width="2" marker-end="url(#arrow-0)"   stroke-linecap="round" stroke-linejoin="round" /><rect x="1157.78" y="661.00" width="80.00" height="28.00" rx="0" ry="0" fill="#E8E8E8" fill-opacity="0.5" stroke="none"/><text x="1197.78" y="679.00" text-anchor="middle" font-family="'trebuchet ms', verdana, arial, sans-serif" font-size="16" fill="#333333"><tspan x="1197.78" dy="0.00">Return URL</tspan></text><path d="M 166.500,444.000C166.500,412.583,-246.217,365.458,166.500,349.750C579.217,334.042,2230.083,368.375,2642.800,349.750C3055.517,331.125,2642.800,275.250,2642.800,238.000" fill="none" stroke="#333333" stroke-width="2" marker-end="url(#arrow-0)"   stroke-linecap="round" stroke-linejoin="round" /><rect x="1364.65" y="335.75" width="80.00" height="28.00" rx="0" ry="0" fill="#E8E8E8" fill-opacity="0.5" stroke="none"/><text x="1404.65" y="353.75" text-anchor="middle" font-family="'trebuchet ms', verdana, arial, sans-serif" font-size="16" fill="#333333"><tspan x="1404.65" dy="0.00">Job Result</tspan></text><path d="M 2675.200,238.000C2675.200,231.917,2718.683,222.792,2675.200,219.750C2631.717,216.708,2457.783,225.708,2414.300,219.750C2370.817,213.792,2414.300,195.917,2414.300,184.000" fill="none" stroke="#333333" stroke-width="2" marker-end="url(#arrow-0)"   stroke-linecap="round" stroke-linejoin="round" /><rect x="2511.95" y="205.75" width="65.60" height="28.00" rx="0" ry="0" fill="#E8E8E8" fill-opacity="0.5" stroke="none"/><text x="2544.75" y="223.75" text-anchor="middle" font-family="'trebuchet ms', verdana, arial, sans-serif" font-size="16" fill="#333333"><tspan x="2544.75" dy="0.00">Response</tspan></text><path d="M 2486.300,184.000C2494.200,184.000,2506.050,192.333,2510.000,184.000C2513.950,175.667,2358.203,142.333,2510.000,134.000C2661.797,125.667,3117.187,134.000,3420.780,134.000" fill="none" stroke="#333333" stroke-width="2" marker-end="url(#arrow-0)"   stroke-linecap="round" stroke-linejoin="round" /><rect x="2459.20" y="145.00" width="101.60" height="28.00" rx="0" ry="0" fill="#E8E8E8" fill-opacity="0.5" stroke="none"/><text x="2510.00" y="163.00" text-anchor="middle" font-family="'trebuchet ms', verdana, arial, sans-serif" font-size="16" fill="#333333"><tspan x="2510.00" dy="0.00">JSON Response</tspan></text><path d="M 126.000,498.000C126.000,515.000,-149.317,540.500,126.000,549.000C401.317,557.500,1502.583,540.500,1777.900,549.000C2053.217,557.500,1777.900,583.000,1777.900,600.000" fill="none" stroke="#333333" stroke-width="2" marker-end="url(#arrow-0)"   stroke-linecap="round" stroke-linejoin="round" /><rect x="886.75" y="535.00" width="130.40" height="28.00" rx="0" ry="0" fill="#E8E8E8" fill-opacity="0.5" stroke="none"/><text x="951.95" y="553.00" text-anchor="middle" font-family="'trebuchet ms', verdana, arial, sans-serif" font-size="16" fill="#333333"><tspan x="951.95" dy="0.00">Cleanup Old Files</tspan></text><rect x="2384.30" y="184.00" width="132.00" height="54.00" rx="0" ry="0" fill="#ECECFF" stroke="#9370DB" stroke-width="1" stroke-linejoin="round" stroke-linecap="round"/><text x="2450.30" y="215.00" text-anchor="middle" font-family="'trebuchet ms', verdana, arial, sans-serif" font-size="16" fill="#333333"><tspan x="2450.30" dy="0.00">RunPod API</tspan></text><rect x="1693.90" y="704.00" width="168.00" height="54.00" rx="0" ry="0" fill="#fff9c4" stroke="#f57f17" stroke-width="2" stroke-linejoin="round" stroke-linecap="round"/><text x="1777.90" y="735.00" text-anchor="middle" font-family="'trebuchet ms', verdana, arial, sans-serif" font-size="16" fill="#333333"><tspan x="1777.90" dy="0.00">CHECKPOINTS_DIR</tspan></text><rect x="3551.10" y="506.00" width="132.00" height="54.00" rx="0" ry="0" fill="#e8f5e9" stroke="#2e7d32" stroke-width="2" stroke-linejoin="round" stroke-linecap="round"/><text x="3617.10" y="537.00" text-anchor="middle" font-family="'trebuchet ms', verdana, arial, sans-serif" font-size="16" fill="#333333"><tspan x="3617.10" dy="0.00">chunk_text</tspan></text><rect x="3276.30" y="80.00" width="189.60" height="54.00" rx="0" ry="0" fill="#e1f5fe" stroke="#01579b" stroke-width="2" stroke-linejoin="round" stroke-linecap="round"/><text x="3371.10" y="111.00" text-anchor="middle" font-family="'trebuchet ms', verdana, arial, sans-serif" font-size="16" fill="#333333"><tspan x="3371.10" dy="0.00">Client Application</tspan></text><rect x="1068.30" y="496.00" width="124.80" height="54.00" rx="0" ry="0" fill="#f3e5f5" stroke="#7b1fa2" stroke-width="2" stroke-linejoin="round" stroke-linecap="round"/><text x="1130.70" y="527.00" text-anchor="middle" font-family="'trebuchet ms', verdana, arial, sans-serif" font-size="16" fill="#333333"><tspan x="1130.70" dy="0.00">config.py</tspan></text><rect x="3529.50" y="610.00" width="175.20" height="54.00" rx="0" ry="0" fill="#e8f5e9" stroke="#2e7d32" stroke-width="2" stroke-linejoin="round" stroke-linecap="round"/><text x="3617.10" y="641.00" text-anchor="middle" font-family="'trebuchet ms', verdana, arial, sans-serif" font-size="16" fill="#333333"><tspan x="3617.10" dy="0.00">crossfade_chunks</tspan></text><rect x="1529.70" y="620.00" width="160.80" height="54.00" rx="0" ry="0" fill="#fce4ec" stroke="#c2185b" stroke-width="2" stroke-linejoin="round" stroke-linecap="round"/><text x="1610.10" y="651.00" text-anchor="middle" font-family="'trebuchet ms', verdana, arial, sans-serif" font-size="16" fill="#333333"><tspan x="1610.10" dy="0.00">encode_to_opus</tspan></text><rect x="3275.60" y="506.00" width="204.00" height="54.00" rx="0" ry="0" fill="#e8f5e9" stroke="#2e7d32" stroke-width="2" stroke-linejoin="round" stroke-linecap="round"/><text x="3377.60" y="537.00" text-anchor="middle" font-family="'trebuchet ms', verdana, arial, sans-serif" font-size="16" fill="#333333"><tspan x="3377.60" dy="0.00">serverless_engine.py</tspan></text><rect x="807.60" y="496.00" width="211.20" height="54.00" rx="0" ry="0" fill="#f3e5f5" stroke="#7b1fa2" stroke-width="2" stroke-linejoin="round" stroke-linecap="round"/><text x="913.20" y="527.00" text-anchor="middle" font-family="'trebuchet ms', verdana, arial, sans-serif" font-size="16" fill="#333333"><tspan x="913.20" dy="0.00">Environment Variables</tspan></text><rect x="1740.00" y="620.00" width="103.20" height="54.00" rx="0" ry="0" fill="#fce4ec" stroke="#c2185b" stroke-width="2" stroke-linejoin="round" stroke-linecap="round"/><text x="1791.60" y="651.00" text-anchor="middle" font-family="'trebuchet ms', verdana, arial, sans-serif" font-size="16" fill="#333333"><tspan x="1791.60" dy="0.00">ffmpeg</tspan></text><rect x="3301.50" y="288.00" width="139.20" height="54.00" rx="0" ry="0" fill="#e1f5fe" stroke="#01579b" stroke-width="2" stroke-linejoin="round" stroke-linecap="round"/><text x="3371.10" y="319.00" text-anchor="middle" font-family="'trebuchet ms', verdana, arial, sans-serif" font-size="16" fill="#333333"><tspan x="3371.10" dy="0.00">HuggingFace</tspan></text><rect x="60.00" y="444.00" width="132.00" height="54.00" rx="0" ry="0" fill="#fff3e0" stroke="#e65100" stroke-width="2" stroke-linejoin="round" stroke-linecap="round"/><text x="126.00" y="475.00" text-anchor="middle" font-family="'trebuchet ms', verdana, arial, sans-serif" font-size="16" fill="#333333"><tspan x="126.00" dy="0.00">handler.py</tspan></text><rect x="295.80" y="392.00" width="146.40" height="54.00" rx="0" ry="0" fill="#fff3e0" stroke="#e65100" stroke-width="2" stroke-linejoin="round" stroke-linecap="round"/><text x="369.00" y="423.00" text-anchor="middle" font-family="'trebuchet ms', verdana, arial, sans-serif" font-size="16" fill="#333333"><tspan x="369.00" dy="0.00">health_check</tspan></text><rect x="3754.60" y="475.00" width="168.00" height="54.00" rx="0" ry="0" fill="#e8f5e9" stroke="#2e7d32" stroke-width="2" stroke-linejoin="round" stroke-linecap="round"/><text x="3838.60" y="506.00" text-anchor="middle" font-family="'trebuchet ms', verdana, arial, sans-serif" font-size="16" fill="#333333"><tspan x="3838.60" dy="0.00">IndexTTS2 Model</tspan></text><rect x="1690.30" y="600.00" width="175.20" height="54.00" rx="0" ry="0" fill="#fff9c4" stroke="#f57f17" stroke-width="2" stroke-linejoin="round" stroke-linecap="round"/><text x="1777.90" y="631.00" text-anchor="middle" font-family="'trebuchet ms', verdana, arial, sans-serif" font-size="16" fill="#333333"><tspan x="1777.90" dy="0.00">OUTPUT_AUDIO_DIR</tspan></text><rect x="2566.00" y="184.00" width="153.60" height="54.00" rx="0" ry="0" fill="#ECECFF" stroke="#9370DB" stroke-width="1" stroke-linejoin="round" stroke-linecap="round"/><text x="2642.80" y="215.00" text-anchor="middle" font-family="'trebuchet ms', verdana, arial, sans-serif" font-size="16" fill="#333333"><tspan x="2642.80" dy="0.00">Request Queue</tspan></text><rect x="3305.10" y="184.00" width="132.00" height="54.00" rx="0" ry="0" fill="#e1f5fe" stroke="#01579b" stroke-width="2" stroke-linejoin="round" stroke-linecap="round"/><text x="3371.10" y="215.00" text-anchor="middle" font-family="'trebuchet ms', verdana, arial, sans-serif" font-size="16" fill="#333333"><tspan x="3371.10" dy="0.00">S3 Storage</tspan></text><rect x="2382.80" y="724.00" width="124.80" height="54.00" rx="0" ry="0" fill="#fce4ec" stroke="#c2185b" stroke-width="2" stroke-linejoin="round" stroke-linecap="round"/><text x="2445.20" y="755.00" text-anchor="middle" font-family="'trebuchet ms', verdana, arial, sans-serif" font-size="16" fill="#333333"><tspan x="2445.20" dy="0.00">S3 Client</tspan></text><rect x="2187.00" y="724.00" width="146.40" height="54.00" rx="0" ry="0" fill="#fce4ec" stroke="#c2185b" stroke-width="2" stroke-linejoin="round" stroke-linecap="round"/><text x="2260.20" y="755.00" text-anchor="middle" font-family="'trebuchet ms', verdana, arial, sans-serif" font-size="16" fill="#333333"><tspan x="2260.20" dy="0.00">upload_to_s3</tspan></text><rect x="241.80" y="496.00" width="254.40" height="54.00" rx="0" ry="0" fill="#fff3e0" stroke="#e65100" stroke-width="2" stroke-linejoin="round" stroke-linecap="round"/><text x="369.00" y="527.00" text-anchor="middle" font-family="'trebuchet ms', verdana, arial, sans-serif" font-size="16" fill="#333333"><tspan x="369.00" dy="0.00">extract_and_validate_params</tspan></text><rect x="1690.30" y="496.00" width="175.20" height="54.00" rx="0" ry="0" fill="#fff9c4" stroke="#f57f17" stroke-width="2" stroke-linejoin="round" stroke-linecap="round"/><text x="1777.90" y="527.00" text-anchor="middle" font-family="'trebuchet ms', verdana, arial, sans-serif" font-size="16" fill="#333333"><tspan x="1777.90" dy="0.00">AUDIO_VOICES_DIR</tspan></text></svg>