<svg xmlns="http://www.w3.org/2000/svg" width="863.7999" height="762" viewBox="0 0 863.7999 762"><rect width="100%" height="100%" fill="#FFFFFF"/><defs><marker id="arrow-0" viewBox="0 0 10 10" refX="5" refY="5" markerUnits="userSpaceOnUse" markerWidth="8" markerHeight="8" orient="auto"><path d="M 0 0 L 10 5 L 0 10 z" fill="#333333"/></marker><marker id="arrow-start-0" viewBox="0 0 10 10" refX="4.5" refY="5" markerUnits="userSpaceOnUse" markerWidth="8" markerHeight="8" orient="auto"><path d="M 0 5 L 10 10 L 10 0 z" fill="#333333"/></marker></defs><path d="M 339.600,78.000C339.600,83.417,339.600,91.542,339.600,94.250C339.600,96.958,339.600,88.625,339.600,94.250C339.600,99.875,339.600,116.750,339.600,128.000" fill="none" stroke="#333333" stroke-width="2" marker-end="url(#arrow-0)"   stroke-linecap="round" stroke-linejoin="round" /><rect x="170.00" y="80.25" width="72.80" height="28.00" rx="0" ry="0" fill="#E8E8E8" fill-opacity="0.5" stroke="none"/><text x="206.40" y="98.25" text-anchor="middle" font-family="'trebuchet ms', verdana, arial, sans-serif" font-size="16" fill="#333333"><tspan x="206.40" dy="0.00">&quot;1. POST&quot;</tspan></text><path d="M 339.600,182.000C339.600,187.417,338.600,195.542,339.600,198.250C340.600,200.958,344.600,192.625,345.600,198.250C346.600,203.875,345.600,220.750,345.600,232.000" fill="none" stroke="#333333" stroke-width="2" marker-end="url(#arrow-0)"   stroke-linecap="round" stroke-linejoin="round" /><rect x="302.60" y="184.25" width="80.00" height="28.00" rx="0" ry="0" fill="#E8E8E8" fill-opacity="0.5" stroke="none"/><text x="342.60" y="202.25" text-anchor="middle" font-family="'trebuchet ms', verdana, arial, sans-serif" font-size="16" fill="#333333"><tspan x="342.60" dy="0.00">&quot;2. Queue&quot;</tspan></text><path d="M 345.600,286.000C345.600,291.417,346.600,299.542,345.600,302.250C344.600,304.958,340.600,296.625,339.600,302.250C338.600,307.875,339.600,324.750,339.600,336.000" fill="none" stroke="#333333" stroke-width="2" marker-end="url(#arrow-0)"   stroke-linecap="round" stroke-linejoin="round" /><rect x="295.40" y="288.25" width="94.40" height="28.00" rx="0" ry="0" fill="#E8E8E8" fill-opacity="0.5" stroke="none"/><text x="342.60" y="306.25" text-anchor="middle" font-family="'trebuchet ms', verdana, arial, sans-serif" font-size="16" fill="#333333"><tspan x="342.60" dy="0.00">&quot;3. Process&quot;</tspan></text><path d="M 315.600,390.000C315.600,395.417,356.600,403.542,315.600,406.250C274.600,408.958,110.600,400.625,69.600,406.250C28.600,411.875,69.600,428.750,69.600,440.000" fill="none" stroke="#333333" stroke-width="2" marker-end="url(#arrow-0)"   stroke-linecap="round" stroke-linejoin="round" /><rect x="149.00" y="328.25" width="87.20" height="28.00" rx="0" ry="0" fill="#E8E8E8" fill-opacity="0.5" stroke="none"/><text x="192.60" y="346.25" text-anchor="middle" font-family="'trebuchet ms', verdana, arial, sans-serif" font-size="16" fill="#333333"><tspan x="192.60" dy="0.00">&quot;4. Config&quot;</tspan></text><path d="M 103.200,440.000C116.400,440.000,136.200,448.333,142.800,440.000C149.400,431.667,112.000,398.333,142.800,390.000C173.600,381.667,266.000,390.000,327.600,390.000" fill="none" stroke="#333333" stroke-width="2" marker-end="url(#arrow-0)"   stroke-linecap="round" stroke-linejoin="round" /><rect x="-84.40" y="401.00" width="101.60" height="28.00" rx="0" ry="0" fill="#E8E8E8" fill-opacity="0.5" stroke="none"/><text x="-33.60" y="419.00" text-anchor="middle" font-family="'trebuchet ms', verdana, arial, sans-serif" font-size="16" fill="#333333"><tspan x="-33.60" dy="0.00">&quot;5. Settings&quot;</tspan></text><path d="M 339.600,390.000C339.600,395.417,355.467,403.542,339.600,406.250C323.733,408.958,260.267,400.625,244.400,406.250C228.533,411.875,244.400,428.750,244.400,440.000" fill="none" stroke="#333333" stroke-width="2" marker-end="url(#arrow-0)"   stroke-linecap="round" stroke-linejoin="round" /><rect x="241.20" y="392.25" width="101.60" height="28.00" rx="0" ry="0" fill="#E8E8E8" fill-opacity="0.5" stroke="none"/><text x="292.00" y="410.25" text-anchor="middle" font-family="'trebuchet ms', verdana, arial, sans-serif" font-size="16" fill="#333333"><tspan x="292.00" dy="0.00">&quot;6. Generate&quot;</tspan></text><path d="M 239.600,494.000C239.600,519.667,255.067,558.167,239.600,571.000C224.133,583.833,162.267,558.167,146.800,571.000C131.333,583.833,146.800,622.333,146.800,648.000" fill="none" stroke="#333333" stroke-width="2" marker-end="url(#arrow-0)"   stroke-linecap="round" stroke-linejoin="round" /><rect x="156.80" y="557.00" width="72.80" height="28.00" rx="0" ry="0" fill="#E8E8E8" fill-opacity="0.5" stroke="none"/><text x="193.20" y="575.00" text-anchor="middle" font-family="'trebuchet ms', verdana, arial, sans-serif" font-size="16" fill="#333333"><tspan x="193.20" dy="0.00">&quot;7. Load&quot;</tspan></text><path d="M 225.200,494.000C225.200,502.333,234.667,514.833,225.200,519.000C215.733,523.167,177.867,514.833,168.400,519.000C158.933,523.167,168.400,535.667,168.400,544.000" fill="none" stroke="#333333" stroke-width="2" marker-end="url(#arrow-0)"   stroke-linecap="round" stroke-linejoin="round" /><rect x="156.80" y="505.00" width="80.00" height="28.00" rx="0" ry="0" fill="#E8E8E8" fill-opacity="0.5" stroke="none"/><text x="196.80" y="523.00" text-anchor="middle" font-family="'trebuchet ms', verdana, arial, sans-serif" font-size="16" fill="#333333"><tspan x="196.80" dy="0.00">&quot;8. Voice&quot;</tspan></text><path d="M 268.400,494.000C268.400,502.333,254.133,514.833,268.400,519.000C282.667,523.167,339.733,514.833,354.000,519.000C368.267,523.167,354.000,535.667,354.000,544.000" fill="none" stroke="#333333" stroke-width="2" marker-end="url(#arrow-0)"   stroke-linecap="round" stroke-linejoin="round" /><rect x="267.60" y="505.00" width="87.20" height="28.00" rx="0" ry="0" fill="#E8E8E8" fill-opacity="0.5" stroke="none"/><text x="311.20" y="523.00" text-anchor="middle" font-family="'trebuchet ms', verdana, arial, sans-serif" font-size="16" fill="#333333"><tspan x="311.20" dy="0.00">&quot;9. Chunk?&quot;</tspan></text><path d="M 354.000,598.000C354.000,606.333,380.133,618.833,354.000,623.000C327.867,627.167,223.333,618.833,197.200,623.000C171.067,627.167,197.200,639.667,197.200,648.000" fill="none" stroke="#333333" stroke-width="2" marker-end="url(#arrow-0)"   stroke-linecap="round" stroke-linejoin="round" /><rect x="224.80" y="609.00" width="101.60" height="28.00" rx="0" ry="0" fill="#E8E8E8" fill-opacity="0.5" stroke="none"/><text x="275.60" y="627.00" text-anchor="middle" font-family="'trebuchet ms', verdana, arial, sans-serif" font-size="16" fill="#333333"><tspan x="275.60" dy="0.00">&quot;10. Process&quot;</tspan></text><path d="M 172.000,648.000C172.000,635.250,158.333,616.125,172.000,609.750C185.667,603.375,240.333,629.042,254.000,609.750C267.667,590.458,254.000,532.583,254.000,494.000" fill="none" stroke="#333333" stroke-width="2" marker-end="url(#arrow-0)"   stroke-linecap="round" stroke-linejoin="round" /><rect x="169.40" y="595.75" width="87.20" height="28.00" rx="0" ry="0" fill="#E8E8E8" fill-opacity="0.5" stroke="none"/><text x="213.00" y="613.75" text-anchor="middle" font-family="'trebuchet ms', verdana, arial, sans-serif" font-size="16" fill="#333333"><tspan x="213.00" dy="0.00">&quot;11. Audio&quot;</tspan></text><path d="M 282.800,494.000C282.800,499.417,240.700,507.542,282.800,510.250C324.900,512.958,493.300,504.625,535.400,510.250C577.500,515.875,535.400,532.750,535.400,544.000" fill="none" stroke="#333333" stroke-width="2" marker-end="url(#arrow-0)"   stroke-linecap="round" stroke-linejoin="round" /><rect x="361.90" y="496.25" width="94.40" height="28.00" rx="0" ry="0" fill="#E8E8E8" fill-opacity="0.5" stroke="none"/><text x="409.10" y="514.25" text-anchor="middle" font-family="'trebuchet ms', verdana, arial, sans-serif" font-size="16" fill="#333333"><tspan x="409.10" dy="0.00">&quot;12. Merge?&quot;</tspan></text><path d="M 569.000,544.000C569.000,538.583,614.300,530.458,569.000,527.750C523.700,525.042,342.500,533.375,297.200,527.750C251.900,522.125,297.200,505.250,297.200,494.000" fill="none" stroke="#333333" stroke-width="2" marker-end="url(#arrow-0)"   stroke-linecap="round" stroke-linejoin="round" /><rect x="385.90" y="513.75" width="94.40" height="28.00" rx="0" ry="0" fill="#E8E8E8" fill-opacity="0.5" stroke="none"/><text x="433.10" y="531.75" text-anchor="middle" font-family="'trebuchet ms', verdana, arial, sans-serif" font-size="16" fill="#333333"><tspan x="433.10" dy="0.00">&quot;13. Merged&quot;</tspan></text><path d="M 278.000,440.000C278.000,434.583,265.733,426.458,278.000,423.750C290.267,421.042,339.333,429.375,351.600,423.750C363.867,418.125,351.600,401.250,351.600,390.000" fill="none" stroke="#333333" stroke-width="2" marker-end="url(#arrow-0)"   stroke-linecap="round" stroke-linejoin="round" /><rect x="267.60" y="409.75" width="94.40" height="28.00" rx="0" ry="0" fill="#E8E8E8" fill-opacity="0.5" stroke="none"/><text x="314.80" y="427.75" text-anchor="middle" font-family="'trebuchet ms', verdana, arial, sans-serif" font-size="16" fill="#333333"><tspan x="314.80" dy="0.00">&quot;14. Tensor&quot;</tspan></text><path d="M 363.600,390.000C363.600,395.417,352.333,403.542,363.600,406.250C374.867,408.958,419.933,400.625,431.200,406.250C442.467,411.875,431.200,428.750,431.200,440.000" fill="none" stroke="#333333" stroke-width="2" marker-end="url(#arrow-0)"   stroke-linecap="round" stroke-linejoin="round" /><rect x="350.20" y="392.25" width="94.40" height="28.00" rx="0" ry="0" fill="#E8E8E8" fill-opacity="0.5" stroke="none"/><text x="397.40" y="410.25" text-anchor="middle" font-family="'trebuchet ms', verdana, arial, sans-serif" font-size="16" fill="#333333"><tspan x="397.40" dy="0.00">&quot;15. Encode&quot;</tspan></text><path d="M 476.800,440.000C476.800,434.583,493.667,426.458,476.800,423.750C459.933,421.042,392.467,429.375,375.600,423.750C358.733,418.125,375.600,401.250,375.600,390.000" fill="none" stroke="#333333" stroke-width="2" marker-end="url(#arrow-0)"   stroke-linecap="round" stroke-linejoin="round" /><rect x="389.80" y="409.75" width="72.80" height="28.00" rx="0" ry="0" fill="#E8E8E8" fill-opacity="0.5" stroke="none"/><text x="426.20" y="427.75" text-anchor="middle" font-family="'trebuchet ms', verdana, arial, sans-serif" font-size="16" fill="#333333"><tspan x="426.20" dy="0.00">&quot;16. OGG&quot;</tspan></text><path d="M 387.600,390.000C387.600,395.417,333.833,403.542,387.600,406.250C441.367,408.958,656.433,400.625,710.200,406.250C763.967,411.875,710.200,428.750,710.200,440.000" fill="none" stroke="#333333" stroke-width="2" marker-end="url(#arrow-0)"   stroke-linecap="round" stroke-linejoin="round" /><rect x="501.70" y="328.25" width="94.40" height="28.00" rx="0" ry="0" fill="#E8E8E8" fill-opacity="0.5" stroke="none"/><text x="548.90" y="346.25" text-anchor="middle" font-family="'trebuchet ms', verdana, arial, sans-serif" font-size="16" fill="#333333"><tspan x="548.90" dy="0.00">&quot;17. Upload&quot;</tspan></text><path d="M 710.200,494.000C710.200,499.417,709.800,507.542,710.200,510.250C710.600,512.958,712.200,504.625,712.600,510.250C713.000,515.875,712.600,532.750,712.600,544.000" fill="none" stroke="#333333" stroke-width="2" marker-end="url(#arrow-0)"   stroke-linecap="round" stroke-linejoin="round" /><rect x="667.80" y="496.25" width="87.20" height="28.00" rx="0" ry="0" fill="#E8E8E8" fill-opacity="0.5" stroke="none"/><text x="711.40" y="514.25" text-anchor="middle" font-family="'trebuchet ms', verdana, arial, sans-serif" font-size="16" fill="#333333"><tspan x="711.40" dy="0.00">&quot;18. Store&quot;</tspan></text><path d="M 748.600,544.000C722.600,544.000,683.600,552.333,670.600,544.000C657.600,535.667,657.200,502.333,670.600,494.000C684.000,485.667,724.200,494.000,751.000,494.000" fill="none" stroke="#333333" stroke-width="2" marker-end="url(#arrow-0)"   stroke-linecap="round" stroke-linejoin="round" /><rect x="589.80" y="505.00" width="72.80" height="28.00" rx="0" ry="0" fill="#E8E8E8" fill-opacity="0.5" stroke="none"/><text x="626.20" y="523.00" text-anchor="middle" font-family="'trebuchet ms', verdana, arial, sans-serif" font-size="16" fill="#333333"><tspan x="626.20" dy="0.00">&quot;19. URL&quot;</tspan></text><path d="M 751.000,440.000C697.467,440.000,617.167,448.333,590.400,440.000C563.633,431.667,622.200,398.333,590.400,390.000C558.600,381.667,463.200,390.000,399.600,390.000" fill="none" stroke="#333333" stroke-width="2" marker-end="url(#arrow-0)"   stroke-linecap="round" stroke-linejoin="round" /><rect x="543.20" y="401.00" width="94.40" height="28.00" rx="0" ry="0" fill="#E8E8E8" fill-opacity="0.5" stroke="none"/><text x="590.40" y="419.00" text-anchor="middle" font-family="'trebuchet ms', verdana, arial, sans-serif" font-size="16" fill="#333333"><tspan x="590.40" dy="0.00">&quot;20. Return&quot;</tspan></text><path d="M 375.600,336.000C375.600,330.583,376.600,322.458,375.600,319.750C374.600,317.042,370.600,325.375,369.600,319.750C368.600,314.125,369.600,297.250,369.600,286.000" fill="none" stroke="#333333" stroke-width="2" marker-end="url(#arrow-0)"   stroke-linecap="round" stroke-linejoin="round" /><rect x="325.40" y="305.75" width="94.40" height="28.00" rx="0" ry="0" fill="#E8E8E8" fill-opacity="0.5" stroke="none"/><text x="372.60" y="323.75" text-anchor="middle" font-family="'trebuchet ms', verdana, arial, sans-serif" font-size="16" fill="#333333"><tspan x="372.60" dy="0.00">&quot;21. Result&quot;</tspan></text><path d="M 369.600,232.000C369.600,226.583,368.600,218.458,369.600,215.750C370.600,213.042,374.600,221.375,375.600,215.750C376.600,210.125,375.600,193.250,375.600,182.000" fill="none" stroke="#333333" stroke-width="2" marker-end="url(#arrow-0)"   stroke-linecap="round" stroke-linejoin="round" /><rect x="318.20" y="201.75" width="108.80" height="28.00" rx="0" ry="0" fill="#E8E8E8" fill-opacity="0.5" stroke="none"/><text x="372.60" y="219.75" text-anchor="middle" font-family="'trebuchet ms', verdana, arial, sans-serif" font-size="16" fill="#333333"><tspan x="372.60" dy="0.00">&quot;22. Response&quot;</tspan></text><path d="M 375.600,128.000C375.600,122.583,375.600,114.458,375.600,111.750C375.600,109.042,375.600,117.375,375.600,111.750C375.600,106.125,375.600,89.250,375.600,78.000" fill="none" stroke="#333333" stroke-width="2" marker-end="url(#arrow-0)"   stroke-linecap="round" stroke-linejoin="round" /><rect x="431.60" y="97.75" width="80.00" height="28.00" rx="0" ry="0" fill="#E8E8E8" fill-opacity="0.5" stroke="none"/><text x="471.60" y="115.75" text-anchor="middle" font-family="'trebuchet ms', verdana, arial, sans-serif" font-size="16" fill="#333333"><tspan x="471.60" dy="0.00">&quot;23. JSON&quot;</tspan></text><rect x="291.60" y="128.00" width="132.00" height="54.00" rx="0" ry="0" fill="#ECECFF" stroke="#9370DB" stroke-width="2" stroke-linejoin="round" stroke-linecap="round"/><text x="357.60" y="159.00" text-anchor="middle" font-family="'trebuchet ms', verdana, arial, sans-serif" font-size="16" fill="#333333"><tspan x="357.60" dy="0.00">RunPod API</tspan></text><rect x="291.60" y="24.00" width="132.00" height="54.00" rx="0" ry="0" fill="#e1f5fe" stroke="#01579b" stroke-width="2" stroke-linejoin="round" stroke-linecap="round"/><text x="357.60" y="55.00" text-anchor="middle" font-family="'trebuchet ms', verdana, arial, sans-serif" font-size="16" fill="#333333"><tspan x="357.60" dy="0.00">Client App</tspan></text><rect x="288.00" y="544.00" width="132.00" height="54.00" rx="0" ry="0" fill="#e8f5e9" stroke="#2e7d32" stroke-width="2" stroke-linejoin="round" stroke-linecap="round"/><text x="354.00" y="575.00" text-anchor="middle" font-family="'trebuchet ms', verdana, arial, sans-serif" font-size="16" fill="#333333"><tspan x="354.00" dy="0.00">chunk_text</tspan></text><rect x="24.00" y="440.00" width="124.80" height="54.00" rx="0" ry="0" fill="#fff3e0" stroke="#e65100" stroke-width="2" stroke-linejoin="round" stroke-linecap="round"/><text x="86.40" y="471.00" text-anchor="middle" font-family="'trebuchet ms', verdana, arial, sans-serif" font-size="16" fill="#333333"><tspan x="86.40" dy="0.00">config.py</tspan></text><rect x="489.80" y="544.00" width="124.80" height="54.00" rx="0" ry="0" fill="#e8f5e9" stroke="#2e7d32" stroke-width="2" stroke-linejoin="round" stroke-linecap="round"/><text x="552.20" y="575.00" text-anchor="middle" font-family="'trebuchet ms', verdana, arial, sans-serif" font-size="16" fill="#333333"><tspan x="552.20" dy="0.00">crossfade</tspan></text><rect x="373.60" y="440.00" width="160.80" height="54.00" rx="0" ry="0" fill="#fff3e0" stroke="#e65100" stroke-width="2" stroke-linejoin="round" stroke-linecap="round"/><text x="454.00" y="471.00" text-anchor="middle" font-family="'trebuchet ms', verdana, arial, sans-serif" font-size="16" fill="#333333"><tspan x="454.00" dy="0.00">encode_to_opus</tspan></text><rect x="198.80" y="440.00" width="124.80" height="54.00" rx="0" ry="0" fill="#e8f5e9" stroke="#2e7d32" stroke-width="2" stroke-linejoin="round" stroke-linecap="round"/><text x="261.20" y="471.00" text-anchor="middle" font-family="'trebuchet ms', verdana, arial, sans-serif" font-size="16" fill="#333333"><tspan x="261.20" dy="0.00">engine.py</tspan></text><rect x="291.60" y="336.00" width="132.00" height="54.00" rx="0" ry="0" fill="#fff3e0" stroke="#e65100" stroke-width="2" stroke-linejoin="round" stroke-linecap="round"/><text x="357.60" y="367.00" text-anchor="middle" font-family="'trebuchet ms', verdana, arial, sans-serif" font-size="16" fill="#333333"><tspan x="357.60" dy="0.00">handler.py</tspan></text><rect x="109.60" y="648.00" width="124.80" height="54.00" rx="0" ry="0" fill="#e8f5e9" stroke="#2e7d32" stroke-width="2" stroke-linejoin="round" stroke-linecap="round"/><text x="172.00" y="679.00" text-anchor="middle" font-family="'trebuchet ms', verdana, arial, sans-serif" font-size="16" fill="#333333"><tspan x="172.00" dy="0.00">IndexTTS2</tspan></text><rect x="309.60" y="232.00" width="96.00" height="54.00" rx="0" ry="0" fill="#ECECFF" stroke="#9370DB" stroke-width="2" stroke-linejoin="round" stroke-linecap="round"/><text x="357.60" y="263.00" text-anchor="middle" font-family="'trebuchet ms', verdana, arial, sans-serif" font-size="16" fill="#333333"><tspan x="357.60" dy="0.00">Queue</tspan></text><rect x="664.60" y="544.00" width="132.00" height="54.00" rx="0" ry="0" fill="#fff9c4" stroke="#f57f17" stroke-width="2" stroke-linejoin="round" stroke-linecap="round"/><text x="730.60" y="575.00" text-anchor="middle" font-family="'trebuchet ms', verdana, arial, sans-serif" font-size="16" fill="#333333"><tspan x="730.60" dy="0.00">S3 Storage</tspan></text><rect x="657.40" y="440.00" width="146.40" height="54.00" rx="0" ry="0" fill="#fff3e0" stroke="#e65100" stroke-width="2" stroke-linejoin="round" stroke-linecap="round"/><text x="730.60" y="471.00" text-anchor="middle" font-family="'trebuchet ms', verdana, arial, sans-serif" font-size="16" fill="#333333"><tspan x="730.60" dy="0.00">upload_to_s3</tspan></text><rect x="98.80" y="544.00" width="139.20" height="54.00" rx="0" ry="0" fill="#fff9c4" stroke="#f57f17" stroke-width="2" stroke-linejoin="round" stroke-linecap="round"/><text x="168.40" y="575.00" text-anchor="middle" font-family="'trebuchet ms', verdana, arial, sans-serif" font-size="16" fill="#333333"><tspan x="168.40" dy="0.00">Voice Files</tspan></text></svg>